Love for All and Sharing is the first step to solving all the problems of humanity.

Websites I want to share.

    
http://www.shareintl.org/

    
http://www.lightmiddleway.com


Thank you very much

No credit for me...credit to EVERYONE for sharing
 
http://thepiratebay.org/user/raymondhome/

PLOT
After the world is decimated by a man-made plague, a battle of literally Biblical proportions ensues between the survivors.

IMDb RATING: 7.2/10 (12,158 votes)

Video
Format : div3
Codec ID : div3
Duration : 1h 28mn
Bit rate : 965 Kbps
Width : 544 pixels
Height : 400 pixels
Display aspect ratio : 4:3
Frame rate : 23.976 fps
Bits/(Pixel*Frame) : 0.185
Stream size : 612 MiB (87%)

Audio
ID : 1
Format : MPEG Audio
Format version : Version 1
Format profile : Layer 3
Codec ID : 55
Codec ID/Hint : MP3
Duration : 1h 28mn
Bit rate mode : Constant
Bit rate : 128 Kbps
Channel(s) : 2 channels
Sampling rate : 48.0 KHz
Stream size : 81.2 MiB (12%)
Alignment : Aligned on interleaves
Interleave, duration : 24 ms (0.58 video frame)
Interleave, preload duration : 480 ms

credit Shedevil BIG BIG BIG TIME & to all the people who made it possible for us to share this...especially EVERYONE involve in the production of the movie...IF YOU LIKE IT...BUY IT :)

*****help what we can with others in need...the world is ONE big family*****